:FULLY-SPECIFIED
:FORCE-ALL-JOINTS-BE-3DOF
:DEGREES
204
root 4.87455 15.0695 -25.4317 7.08977 -1.36746 5.68615
lfemur 7.48063 -1.49662 0.724153
ltibia 5.96948 -0 0
lfoot -35.3987 -13.0054 -0.0057285
ltoes 47.1766 -0 0
rfemur -30.9133 -19.3709 -8.84823
rtibia 50.3422 -0 0
rfoot -26.6755 17.6099 0.000105187
rtoes 60.0677 -0 0
lowerback -3.41897 -1.65636 -0.393723
upperback -0.564115 -2.10493 -7.71831
thorax 1.05652 -1.05852 -7.94432
lowerneck -11.7036 0.419746 6.68445
upperneck 3.68835 -0.613624 2.54869
head 3.26438 -0.0819186 -0.380122
lclavicle -2.07531e-14 -3.21236e-14 -3.69146e-30
lhumerus -58.75 -46.5096 115.505
lradius 54.1622 -0 0
lwrist 27.0517 0 0
lhand 39.9737 31.1537 -0.00883602
lfingers 7.12502 -0 0
lthumb 62.371 42.1591 -0.0109022
rclavicle -2.07531e-14 -3.21236e-14 -3.69146e-30
rhumerus -5.11336 -9.805 -11.2054
rradius 59.3901 -0 0
rwrist -25.5414 0 0
rhand -17.212 -48.0654 2.57408
rfingers 7.12502 -0 0
rthumb 10.8613 -2.8948 -17.3131
205
root 4.85532 15.056 -25.4468 7.15708 -1.40582 5.63956
lfemur 7.46216 -1.68534 0.801237
ltibia 5.85873 -0 0
lfoot -35.6234 -12.5184 -0.0057285
ltoes 47.1587 -0 0
rfemur -31.2817 -19.7148 -8.66102
rtibia 50.6908 -0 0
rfoot -26.6688 17.9134 0.000105187
rtoes 60.1501 -0 0
lowerback -3.16375 -1.55562 -0.431307
upperback -0.621004 -1.98484 -7.67974
thorax 0.873031 -1.00205 -7.86484
lowerneck -11.559 0.398813 6.78596
upperneck 3.73927 -0.640119 2.46642
head 3.25376 -0.0963698 -0.426502
lclavicle -1.25433e-14 -2.35361e-14 -3.69146e-30
lhumerus -59.0164 -46.6886 115.906
lradius 54.1483 -0 0
lwrist 26.3255 0 0
lhand 40.2508 30.5447 -0.00883602
lfingers 7.12502 -0 0
lthumb 62.6004 41.2516 -0.0109022
rclavicle -1.25433e-14 -2.35361e-14 -3.69146e-30
rhumerus -4.56638 -17.012 -12.3062
rradius 58.1814 -0 0
rwrist -24.3673 0 0
rhand -26.3385 -53.5519 2.57408
rfingers 7.12502 -0 0
rthumb -1.66365 30.7068 -17.3131
206
root 4.8361 15.0424 -25.462 7.22443 -1.44413 5.59292
lfemur 7.44343 -1.87402 0.87839
ltibia 5.74798 -0 0
lfoot -35.8481 -12.0316 -0.00381883
ltoes 47.1409 -0 0
rfemur -31.652 -20.0574 -8.47106
rtibia 51.0395 -0 0
rfoot -26.6622 18.2168 7.01239e-05
rtoes 60.2326 -0 0
lowerback -2.9086 -1.45471 -0.468439
upperback -0.677807 -1.86471 -7.64129
thorax 0.689624 -0.945322 -7.78554
lowerneck -11.4144 0.377624 6.88742
upperneck 3.79022 -0.666541 2.38413
head 3.24314 -0.11083 -0.472879
lclavicle -4.3335e-15 -1.49486e-14 -2.46097e-30
lhumerus -59.2854 -46.8664 116.31
lradius 54.1343 -0 0
lwrist 25.5992 0 0
lhand 40.528 29.9358 -0.00589028
lfingers 7.12502 -0 0
lthumb 62.8299 40.344 -0.00726784
rclavicle -4.3335e-15 -1.49486e-14 -2.46097e-30
rhumerus -3.84158 -24.2068 -13.5356
rradius 56.9727 -0 0
rwrist -23.1931 0 0
rhand -35.4208 -58.9675 1.70617
rfingers 7.12502 -0 0
rthumb -11.9958 63.0861 -10.7852
207
root 4.81688 15.0289 -25.4771 7.29181 -1.48238 5.54624
lfemur 7.42444 -2.06268 0.955612
ltibia 5.63723 0 0
lfoot -36.0728 -11.5447 0
ltoes 47.123 0 0
rfemur -32.0244 -20.3989 -8.27833
rtibia 51.3881 0 0
rfoot -26.6556 18.5203 0
rtoes 60.315 0 0
lowerback -2.65354 -1.35364 -0.505119
upperback -0.734526 -1.74455 -7.60297
thorax 0.506301 -0.888343 -7.70642
lowerneck -11.2699 0.356179 6.98882
upperneck 3.84121 -0.69289 2.30181
head 3.23254 -0.125298 -0.519254
lclavicle 3.8763e-15 -6.36111e-15 0
lhumerus -59.5572 -47.0428 116.716
lradius 54.1203 0 0
lwrist 24.8729 0 0
lhand 40.8051 29.327 0
lfingers 7.12502 0 0
lthumb 63.0592 39.4365 0
rclavicle 3.8763e-15 -6.36111e-15 0
rhumerus -2.88701 -31.384 -14.9553
rradius 55.764 0 0
rwrist -22.019 0 0
rhand -44.3783 -64.1768 0
rfingers 7.12502 0 0
rthumb -17.1853 -626.563 0
